<?xml version="1.0" encoding="iso-8859-1"?>
<!-- Uploaded to: SVG Repo, www.svgrepo.com, Generator: SVG Repo Mixer Tools -->
<svg version="1.1" id="Layer_1" xmlns="http://www.w3.org/2000/svg" xmlns:xlink="http://www.w3.org/1999/xlink" 
	 viewBox="0 0 512 512" xml:space="preserve">
<path style="fill:#55D0FF;" d="M471.149,8.173h-32.681v495.66h32.681c17.974,0,32.681-14.706,32.681-32.681V40.854
	C503.83,22.88,489.123,8.173,471.149,8.173z"/>
<path style="fill:#AAE8FF;" d="M471.149,40.854v430.298c0,17.974-14.706,32.681-32.681,32.681H40.851
	c-17.974,0-32.681-14.706-32.681-32.681V40.854c0-17.974,14.706-32.681,32.681-32.681h397.617
	C456.443,8.173,471.149,22.88,471.149,40.854z"/>
<polygon style="fill:#FFD46E;" points="239.627,40.854 239.627,239.674 206.946,239.674 174.265,140.264 206.946,40.854 "/>
<rect x="40.851" y="40.854" style="fill:#FFE9B7;" width="166.095" height="198.819"/>
<path style="fill:#E52C22;" d="M140.266,74.897V205.62c27.082,0,49.021-21.94,49.021-49.021
	C188.656,114.964,158.731,74.897,140.266,74.897z"/>
<path style="fill:#EC5123;" d="M140.266,74.897c6.155,0,16.242,40.067,16.34,81.702c0.076,27.082-7.31,49.021-16.34,49.021
	c-27.071,0-49.01-21.94-49.01-49.021C91.888,114.964,121.812,74.897,140.266,74.897z"/>
<polygon style="fill:#5B4FFF;" points="239.692,272.33 239.692,471.149 207.011,471.149 174.331,371.739 207.011,272.33 "/>
<rect x="40.916" y="272.33" style="fill:#2E84FF;" width="166.095" height="198.819"/>
<polygon style="fill:#FFD46E;" points="471.149,272.33 471.149,471.149 438.468,471.149 405.787,371.739 438.468,272.33 "/>
<rect x="272.373" y="272.33" style="fill:#FFE9B7;" width="166.095" height="198.819"/>
<polygon style="fill:#5B4FFF;" points="471.149,40.854 471.149,239.674 438.468,239.674 405.787,140.264 438.468,40.854 "/>
<rect x="272.373" y="40.854" style="fill:#2E84FF;" width="166.095" height="198.819"/>
<path style="fill:#FFD46E;" d="M351.352,74.897c36.047,0,65.351,29.326,65.351,65.362c0,36.047-29.304,65.373-65.351,65.373
	l21.776-65.373L351.352,74.897z"/>
<path style="fill:#FFE9B7;" d="M351.352,74.897c18.018,0,32.67,29.326,32.67,65.362c0,36.047-14.652,65.373-32.67,65.373
	c-13.53,0-24.532-10.981-24.532-24.522c0-13.53,11.003-24.511,24.532-24.511c8.976-0.044,16.33-7.353,16.33-16.34
	c0-8.976-7.353-16.286-16.33-16.34c-13.53,0-24.532-10.97-24.532-24.511C326.819,85.878,337.822,74.897,351.352,74.897z"/>
<path style="fill:#FFD46E;" d="M119.865,306.383c36.047,0,65.351,29.326,65.351,65.362c0,36.047-29.304,65.373-65.351,65.373
	l21.776-65.373L119.865,306.383z"/>
<path style="fill:#FFE9B7;" d="M119.865,306.383c18.018,0,32.67,29.326,32.67,65.362c0,36.047-14.652,65.373-32.67,65.373
	c-13.53,0-24.532-10.981-24.532-24.522c0-13.53,11.003-24.511,24.532-24.511c8.976-0.044,16.33-7.353,16.33-16.34
	c0-8.976-7.353-16.286-16.33-16.34c-13.53,0-24.532-10.97-24.532-24.511C95.332,317.364,106.335,306.383,119.865,306.383z"/>
<path style="fill:#E52C22;" d="M371.761,306.39v130.723c27.082,0,49.021-21.94,49.021-49.021
	C420.15,346.456,390.226,306.39,371.761,306.39z"/>
<path style="fill:#EC5123;" d="M371.761,306.39c6.155,0,16.242,40.067,16.34,81.702c0.076,27.082-7.31,49.021-16.34,49.021
	c-27.071,0-49.01-21.94-49.01-49.021C323.382,346.456,353.307,306.39,371.761,306.39z"/>
<path d="M239.692,32.681H40.851c-4.513,0-8.17,3.658-8.17,8.17v198.823c0,4.512,3.657,8.17,8.17,8.17h198.841
	c4.513,0,8.17-3.658,8.17-8.17V40.851C247.862,36.339,244.205,32.681,239.692,32.681z M231.522,231.504H49.021V49.021h182.501
	V231.504z"/>
<path d="M471.149,0H40.851C18.325,0,0,18.325,0,40.851v430.298C0,493.675,18.325,512,40.851,512h430.298
	C493.675,512,512,493.675,512,471.149V40.851C512,18.325,493.675,0,471.149,0z M495.66,471.149
	c0,13.516-10.996,24.511-24.511,24.511H40.851c-13.515,0-24.511-10.995-24.511-24.511V40.851c0-13.516,10.996-24.511,24.511-24.511
	h430.298c13.515,0,24.511,10.995,24.511,24.511V471.149z"/>
<path d="M351.354,148.433c-18.033,0-32.704,14.661-32.704,32.68c0,18.021,14.67,32.684,32.704,32.684
	c40.537,0,73.517-32.988,73.517-73.535s-32.979-73.535-73.517-73.535c-18.033,0-32.704,14.662-32.704,32.684
	c0,18.02,14.67,32.68,32.658,32.68c4.521,0.025,8.2,3.691,8.2,8.171C359.51,144.742,355.831,148.408,351.354,148.433z
	 M351.354,115.75c-9.022,0-16.363-7.33-16.363-16.339c0-9.011,7.34-16.344,16.363-16.344c31.527,0,57.176,25.658,57.176,57.195
	c0,31.538-25.649,57.195-57.176,57.195c-9.022,0-16.363-7.332-16.363-16.344c0-9.01,7.34-16.339,16.409-16.339
	c13.482-0.075,24.45-11.071,24.45-24.512C375.85,126.82,364.882,115.825,351.354,115.75z"/>
<path d="M471.149,32.681H272.373c-4.513,0-8.17,3.658-8.17,8.17v198.823c0,4.512,3.657,8.17,8.17,8.17h198.776
	c4.513,0,8.17-3.658,8.17-8.17V40.851C479.319,36.339,475.662,32.681,471.149,32.681z M462.979,231.504H280.543V49.021h182.435
	V231.504z"/>
<path d="M371.761,445.283c31.534,0,57.188-25.656,57.188-57.191c0-0.041,0-0.083-0.001-0.124
	c-0.309-20.347-7.286-42.501-19.139-60.784c-11.757-18.135-25.981-28.962-38.048-28.962c-0.228,0-0.454,0.007-0.681,0.019
	c-11.918,0.395-25.829,11.147-37.366,28.943c-11.854,18.283-18.83,40.438-19.139,60.784c-0.001,0.041-0.001,0.083-0.001,0.124
	C314.574,419.628,340.227,445.283,371.761,445.283z M412.609,388.153c-0.023,15.288-8.49,28.627-20.975,35.611
	c1.619-5.258,2.86-11.411,3.674-18.382c0.524-4.482-2.684-8.539-7.165-9.065c-4.497-0.528-8.541,2.683-9.065,7.166
	c-1.657,14.152-5.206,22.025-7.328,24.722c-3.04-3.829-8.216-17.52-8.158-40.092c0.07-27.602,4.386-51.416,8.173-64.61
	c3.016,10.531,6.354,27.863,7.643,48.751c0.278,4.505,4.152,7.927,8.657,7.652c4.503-0.278,7.928-4.154,7.651-8.657
	c-0.943-15.314-3.156-31.109-6.131-43.98c2.169,2.563,4.364,5.49,6.511,8.804C406.314,351.83,412.331,370.809,412.609,388.153z
	 M347.425,336.072c2.144-3.307,4.335-6.23,6.5-8.791c-0.195,0.849-0.389,1.717-0.584,2.613c-3.82,17.605-6.039,38.809-6.088,58.175
	c-0.029,11.484,1.296,24.804,4.656,35.704c-12.494-6.981-20.971-20.326-20.994-35.622
	C331.191,370.809,337.208,351.83,347.425,336.072z"/>
<path d="M471.149,264.184H272.373c-4.513,0-8.17,3.658-8.17,8.17v198.794c0,4.512,3.657,8.17,8.17,8.17h198.776
	c4.513,0,8.17-3.658,8.17-8.17V272.355C479.319,267.842,475.662,264.184,471.149,264.184z M462.979,462.979H280.543V280.525h182.435
	V462.979z"/>
<path d="M119.866,379.922c-18.033,0-32.704,14.661-32.704,32.68c0,18.021,14.672,32.684,32.704,32.684
	c40.537,0,73.516-32.988,73.516-73.535c0-40.547-32.979-73.535-73.517-73.535c-18.033,0-32.704,14.662-32.704,32.684
	c0,18.02,14.67,32.68,32.658,32.68c4.521,0.025,8.2,3.691,8.2,8.171C128.021,376.232,124.342,379.897,119.866,379.922z
	 M119.865,347.239c-9.022,0-16.363-7.33-16.363-16.339c0-9.011,7.34-16.344,16.363-16.344c31.527,0,57.176,25.658,57.176,57.195
	c0,31.538-25.649,57.195-57.175,57.195c-9.023,0-16.363-7.332-16.363-16.344c0-9.01,7.34-16.339,16.409-16.339
	c13.481-0.075,24.449-11.071,24.449-24.512C144.361,358.31,133.392,347.315,119.865,347.239z"/>
<path d="M239.692,264.184H40.851c-4.513,0-8.17,3.658-8.17,8.17v198.794c0,4.512,3.657,8.17,8.17,8.17h198.841
	c4.513,0,8.17-3.658,8.17-8.17V272.355C247.862,267.842,244.205,264.184,239.692,264.184z M231.522,462.979H49.021V280.525h182.501
	V462.979z"/>
<path d="M140.273,213.794c31.533,0,57.187-25.656,57.187-57.191c0-0.041,0-0.083-0.001-0.124
	c-0.309-20.346-7.286-42.501-19.139-60.784c-11.757-18.135-25.981-28.962-38.047-28.962c-0.228,0-0.454,0.007-0.68,0.019
	c-11.92,0.395-25.831,11.146-37.368,28.943c-11.854,18.283-18.83,40.438-19.139,60.784c-0.001,0.041-0.001,0.083-0.001,0.124
	C83.085,188.138,108.738,213.794,140.273,213.794z M181.119,156.663c-0.023,15.289-8.492,28.628-20.976,35.612
	c1.619-5.259,2.861-11.411,3.677-18.383c0.524-4.482-2.684-8.54-7.165-9.065c-4.498-0.528-8.541,2.684-9.065,7.166
	c-1.657,14.152-5.206,22.025-7.327,24.722c-3.041-3.829-8.217-17.52-8.159-40.092c0.07-27.602,4.386-51.416,8.173-64.61
	c3.016,10.531,6.354,27.863,7.643,48.751c0.277,4.505,4.157,7.934,8.657,7.652c4.503-0.278,7.928-4.154,7.651-8.657
	c-0.943-15.313-3.156-31.109-6.131-43.98c2.169,2.563,4.363,5.49,6.511,8.804C174.825,120.341,180.842,139.32,181.119,156.663z
	 M115.935,104.583c2.144-3.307,4.335-6.23,6.5-8.79c-0.195,0.849-0.389,1.716-0.584,2.613c-3.82,17.605-6.039,38.809-6.088,58.175
	c-0.029,11.483,1.296,24.804,4.656,35.704c-12.494-6.981-20.971-20.326-20.994-35.622
	C99.702,139.32,105.718,120.341,115.935,104.583z"/>
</svg>