<svg width="701" height="152" viewBox="0 0 701 152" fill="none" xmlns="http://www.w3.org/2000/svg">
<g filter="url(#filter0_ii_2_36)">
<circle cx="76" cy="76" r="76" fill="white"/>
</g>
<circle cx="76" cy="76" r="73.5" stroke="#EDEDED" stroke-width="5"/>
<g filter="url(#filter1_d_2_36)">
<path d="M53 107V54.8651L98 98.1273V45" stroke="url(#paint0_linear_2_36)" stroke-width="10" stroke-linecap="round"/>
</g>
<path d="M183.23 113C180.952 113 179.812 111.779 179.812 109.338V46.6426C179.812 44.2012 180.952 42.9805 183.23 42.9805H190.457C193.257 42.9805 195.372 44.1198 196.805 46.3984L221.707 86.3887H222.049C221.886 84.4355 221.805 82.4824 221.805 80.5293V46.6426C221.805 44.2012 222.944 42.9805 225.223 42.9805H232.645C234.923 42.9805 236.062 44.2012 236.062 46.6426V109.338C236.062 111.779 234.923 113 232.645 113H225.906C223.107 113 220.991 111.861 219.559 109.582L194.168 68.8594H193.826C193.989 70.8125 194.07 72.7656 194.07 74.7188V109.338C194.07 111.779 192.931 113 190.652 113H183.23ZM247.781 87.3652C247.781 79.1296 249.832 72.6354 253.934 67.8828C258.068 63.1302 263.895 60.7539 271.414 60.7539C280.138 60.7539 286.616 63 290.848 67.4922C295.079 71.9844 297.195 79.2109 297.195 89.1719C297.195 91.125 296.284 92.1016 294.461 92.1016H262.234C262.755 97.5052 264.09 100.907 266.238 102.307C268.387 103.706 270.877 104.406 273.709 104.406C276.411 104.406 278.478 104.048 279.91 103.332C281.342 102.616 282.547 101.639 283.523 100.402C284.63 98.9701 285.997 98.7422 287.625 99.7188L292.508 102.697C294.428 103.869 294.705 105.269 293.338 106.896C291.352 109.273 289.025 111.047 286.355 112.219C283.686 113.391 279.471 113.977 273.709 113.977C264.367 113.977 257.71 111.6 253.738 106.848C249.767 102.095 247.781 95.6009 247.781 87.3652ZM262.283 82.3359H283.523C283.523 78.8203 282.645 75.9557 280.887 73.7422C279.129 71.4961 276.329 70.373 272.488 70.373C269.428 70.373 267.003 71.4473 265.213 73.5957C263.423 75.7116 262.446 78.625 262.283 82.3359ZM308.133 113C305.333 113 304.747 111.812 306.375 109.436L322.537 85.998L308.279 65.2949C306.652 62.9186 307.238 61.7305 310.037 61.7305H319.266C320.73 61.7305 321.837 62.3815 322.586 63.6836L330.154 76.8672L337.723 63.6836C338.471 62.3815 339.578 61.7305 341.043 61.7305H350.271C353.104 61.7305 353.689 62.9186 352.029 65.2949L337.674 85.998L353.934 109.436C355.594 111.812 355.008 113 352.176 113H342.947C341.515 113 340.408 112.349 339.627 111.047L330.154 95.1289L320.682 111.047C319.9 112.349 318.794 113 317.361 113H308.133ZM359.549 55.4805C357.107 55.4805 355.887 54.4225 355.887 52.3066V46.1543C355.887 44.0384 357.107 42.9805 359.549 42.9805H409.744C412.186 42.9805 413.406 44.0384 413.406 46.1543V52.3066C413.406 54.4225 412.186 55.4805 409.744 55.4805H391.775V110.314C391.775 112.105 390.962 113 389.334 113H379.959C378.331 113 377.518 112.105 377.518 110.314V55.4805H359.549ZM409.109 113C407.156 113 406.18 112.023 406.18 110.07V64.6602C406.18 62.707 407.156 61.7305 409.109 61.7305H416.824C418.777 61.7305 419.754 62.707 419.754 64.6602V68.6641H419.949C420.796 66.5807 422.212 64.7415 424.197 63.1465C426.183 61.5514 428.527 60.7539 431.229 60.7539C433.084 60.7539 434.614 60.9818 435.818 61.4375C436.958 61.8607 437.397 62.6419 437.137 63.7812L435.77 69.5918C435.477 70.8939 434.598 71.2845 433.133 70.7637C432.286 70.4707 431.473 70.3242 430.691 70.3242C427.566 70.3242 424.979 72.196 422.928 75.9395C420.877 79.6829 419.852 85.1354 419.852 92.2969V110.07C419.852 112.023 418.875 113 416.922 113H409.109ZM441.824 87.3652C441.824 79.1296 443.875 72.6354 447.977 67.8828C452.111 63.1302 457.938 60.7539 465.457 60.7539C474.181 60.7539 480.659 63 484.891 67.4922C489.122 71.9844 491.238 79.2109 491.238 89.1719C491.238 91.125 490.327 92.1016 488.504 92.1016H456.277C456.798 97.5052 458.133 100.907 460.281 102.307C462.43 103.706 464.92 104.406 467.752 104.406C470.454 104.406 472.521 104.048 473.953 103.332C475.385 102.616 476.59 101.639 477.566 100.402C478.673 98.9701 480.04 98.7422 481.668 99.7188L486.551 102.697C488.471 103.869 488.748 105.269 487.381 106.896C485.395 109.273 483.068 111.047 480.398 112.219C477.729 113.391 473.514 113.977 467.752 113.977C458.41 113.977 451.753 111.6 447.781 106.848C443.81 102.095 441.824 95.6009 441.824 87.3652ZM456.326 82.3359H477.566C477.566 78.8203 476.688 75.9557 474.93 73.7422C473.172 71.4961 470.372 70.373 466.531 70.373C463.471 70.373 461.046 71.4473 459.256 73.5957C457.465 75.7116 456.489 78.625 456.326 82.3359ZM504.812 113C502.859 113 501.883 112.023 501.883 110.07V64.6602C501.883 62.707 502.859 61.7305 504.812 61.7305H512.527C514.48 61.7305 515.457 62.707 515.457 64.6602V67.4922H515.652C517.15 64.9206 519.054 63.1628 521.365 62.2188C523.676 61.2422 526.46 60.7539 529.715 60.7539C534.793 60.7539 538.992 62.349 542.312 65.5391C545.633 68.7292 547.293 74.556 547.293 83.0195V110.07C547.293 112.023 546.316 113 544.363 113H536.551C534.598 113 533.621 112.023 533.621 110.07V86.5352C533.621 79.4388 533.133 74.9629 532.156 73.1074C531.18 71.252 529.08 70.3242 525.857 70.3242C522.439 70.3242 519.868 71.6589 518.143 74.3281C516.417 76.9648 515.555 82.4661 515.555 90.832V110.07C515.555 112.023 514.578 113 512.625 113H504.812ZM557.742 87.3652C557.742 80.2038 559.288 73.9863 562.381 68.7129C565.506 63.4069 570.893 60.7539 578.543 60.7539C581.473 60.7539 583.979 61.1771 586.062 62.0234C588.146 62.8698 590.034 64.6927 591.727 67.4922H591.922C591.792 66.1901 591.727 64.888 591.727 63.5859V43.8594C591.727 41.9062 592.703 40.9297 594.656 40.9297H602.469C604.422 40.9297 605.398 41.9062 605.398 43.8594V110.07C605.398 112.023 604.422 113 602.469 113H594.754C593.126 113 592.247 112.023 592.117 110.07L591.922 107.238H591.727C590.034 110.038 588.146 111.861 586.062 112.707C583.979 113.553 581.473 113.977 578.543 113.977C570.893 113.977 565.506 111.34 562.381 106.066C559.288 100.76 557.742 94.5267 557.742 87.3652ZM572.195 87.3652C572.195 92.5736 572.863 96.724 574.197 99.8164C575.564 102.876 578.445 104.406 582.84 104.406C585.281 104.406 587.365 103.039 589.09 100.305C590.848 97.5378 591.727 93.957 591.727 89.5625V85.168C591.727 80.7734 590.848 77.209 589.09 74.4746C587.365 71.7077 585.281 70.3242 582.84 70.3242C578.445 70.3242 575.564 71.8704 574.197 74.9629C572.863 78.0228 572.195 82.1569 572.195 87.3652Z" fill="url(#paint1_linear_2_36)"/>
<defs>
<filter id="filter0_ii_2_36" x="-5.2" y="-5.2" width="164.2" height="160.2" filterUnits="userSpaceOnUse" color-interpolation-filters="sRGB">
<feFlood flood-opacity="0" result="BackgroundImageFix"/>
<feBlend mode="normal" in="SourceGraphic" in2="BackgroundImageFix" result="shape"/>
<feColorMatrix in="SourceAlpha" type="matrix" values="0 0 0 0 0 0 0 0 0 0 0 0 0 0 0 0 0 0 127 0" result="hardAlpha"/>
<feMorphology radius="4" operator="erode" in="SourceAlpha" result="effect1_innerShadow_2_36"/>
<feOffset dx="7" dy="3"/>
<feGaussianBlur stdDeviation="3.1"/>
<feComposite in2="hardAlpha" operator="arithmetic" k2="-1" k3="1"/>
<feColorMatrix type="matrix" values="0 0 0 0 0 0 0 0 0 0 0 0 0 0 0 0 0 0 0.25 0"/>
<feBlend mode="normal" in2="shape" result="effect1_innerShadow_2_36"/>
<feColorMatrix in="SourceAlpha" type="matrix" values="0 0 0 0 0 0 0 0 0 0 0 0 0 0 0 0 0 0 127 0" result="hardAlpha"/>
<feMorphology radius="1" operator="dilate" in="SourceAlpha" result="effect2_innerShadow_2_36"/>
<feOffset dx="-8" dy="-8"/>
<feGaussianBlur stdDeviation="3.1"/>
<feComposite in2="hardAlpha" operator="arithmetic" k2="-1" k3="1"/>
<feColorMatrix type="matrix" values="0 0 0 0 0 0 0 0 0 0 0 0 0 0 0 0 0 0 0.15 0"/>
<feBlend mode="normal" in2="effect1_innerShadow_2_36" result="effect2_innerShadow_2_36"/>
</filter>
<filter id="filter1_d_2_36" x="48" y="40" width="70" height="85" filterUnits="userSpaceOnUse" color-interpolation-filters="sRGB">
<feFlood flood-opacity="0" result="BackgroundImageFix"/>
<feColorMatrix in="SourceAlpha" type="matrix" values="0 0 0 0 0 0 0 0 0 0 0 0 0 0 0 0 0 0 127 0" result="hardAlpha"/>
<feOffset dx="11" dy="9"/>
<feGaussianBlur stdDeviation="2"/>
<feComposite in2="hardAlpha" operator="out"/>
<feColorMatrix type="matrix" values="0 0 0 0 0 0 0 0 0 0 0 0 0 0 0 0 0 0 0.1 0"/>
<feBlend mode="normal" in2="BackgroundImageFix" result="effect1_dropShadow_2_36"/>
<feBlend mode="normal" in="SourceGraphic" in2="effect1_dropShadow_2_36" result="shape"/>
</filter>
<linearGradient id="paint0_linear_2_36" x1="11.6384" y1="103.989" x2="114.566" y2="66.9005" gradientUnits="userSpaceOnUse">
<stop stop-color="#FF8800"/>
<stop offset="1" stop-color="#BB346E"/>
</linearGradient>
<linearGradient id="paint1_linear_2_36" x1="172" y1="76" x2="701" y2="76" gradientUnits="userSpaceOnUse">
<stop stop-color="#FF8800"/>
<stop offset="1" stop-color="#FF4193"/>
</linearGradient>
</defs>
</svg>
